<?xml version="1.0" encoding="UTF-8"?>
<svg id="Layer_2" data-name="Layer 2" xmlns="http://www.w3.org/2000/svg" viewBox="0 0 117.91 11.74">
  <defs>
    <style>
      .cls-1 {
        fill: #232323;
      }
    </style>
  </defs>
  <g id="Layer_2-2" data-name="Layer 2">
    <g id="Layer_1-2" data-name="Layer 1-2">
      <g>
        <g>
          <path class="cls-1" d="M71.45,8.87s0-.07-.04-.09l-.06-.03s-.08,0-.11.02l-.31.28c-.96.87-2.2,1.35-3.49,1.35h-6.33V2.54c0-.94.54-1.79,1.39-2.18.03,0,.05-.04.05-.08v-.07s-.04-.08-.08-.08h-3.5s-.08.04-.08.08v.07s.03.06.05.07l.59.64v9.19l-1.14.69s-.05.04-.05.07v.09s.04.08.08.08h12.4l.62-2.26v.02h0Z"/>
          <path class="cls-1" d="M22.69.22s-.04-.09-.09-.09h-2.4s-.08.04-.08.08v.07s.02.05.05.07l.79.64v5.93c0,1.7-1.11,2.99-2.93,2.99s-2.87-1.2-2.87-2.92V2.52c0-.93.55-1.78,1.39-2.17h0s.05-.04.05-.08v-.07s-.04-.08-.08-.08h-3.64c-.1,0-.13.07-.13.15,0,.03.02.05.05.07l.79.64v3.52h0v3.72c.54,1.84,2.11,2.96,4.07,2.96,2.42,0,4.2-1.5,4.2-4V1.92c0-.62.29-1.2.79-1.57.05-.03.07-.09.07-.14h-.03Z"/>
          <path class="cls-1" d="M38.09,11.13h7.31l.73-2.38c.02-.06,0-.12-.06-.14-.05-.03-.11-.02-.15.03-1.45,1.64-1.77,1.8-2.88,1.8h-2.14v-4.22h1.98l.79,1.02s.04.06.08.06c.05,0,.08-.04.08-.08v-2.79s-.04-.08-.08-.08h0s-.06.02-.08.05c-.49.49-1.16.77-1.86.77h-.91V.84h1.13c1.27,0,2.5.47,3.45,1.32l.39.35s.06.03.09,0l.04-.02s.05-.06.04-.1l-.72-2.26h-6.76s-.08.04-.08.08v.07s0,.05.05.07l.79.61v9.27l-1.29.63s-.08.07-.08.12c0,.08.06.14.14.14h0Z"/>
          <path class="cls-1" d="M87.57,11.13h7.31l.73-2.38c.02-.06,0-.12-.06-.14-.05-.03-.11-.02-.15.03-1.45,1.64-1.77,1.8-2.88,1.8h-2.14v-4.22h1.98l.79,1.02s.04.06.08.06c.05,0,.08-.04.08-.08v-2.79s-.04-.08-.08-.08h0s-.06.02-.08.05c-.49.49-1.16.77-1.86.77h-.91V.84h1.13c1.27,0,2.5.47,3.45,1.32l.39.35s.06.03.09,0l.04-.02s.05-.06.04-.1l-.72-2.26h-6.76s-.08.04-.08.08v.07s0,.05.05.07l.79.61v9.27l-1.29.63s-.08.07-.08.12c0,.08.06.14.14.14h0Z"/>
          <path class="cls-1" d="M37.96,8.87s0-.07-.04-.09l-.06-.03s-.08,0-.11.02l-.31.28c-.96.87-2.2,1.35-3.49,1.35h-.93V2.54c0-.94.54-1.79,1.39-2.18.03,0,.05-.04.05-.08v-.07s-.04-.08-.08-.08h-3.5s-.08.04-.08.08v.07s.03.06.05.07l.59.64v9.19l-1.14.69s-.05.04-.05.07v.09s.04.08.08.08h7l.62-2.26v.02h.01Z"/>
          <path class="cls-1" d="M30.23,8.87s0-.07-.04-.09l-.06-.03s-.08,0-.11.02l-.31.28c-.96.87-2.2,1.35-3.49,1.35h-.93V2.54c0-.94.54-1.79,1.39-2.18.03,0,.05-.04.05-.08v-.07s-.04-.08-.08-.08h-3.5s-.08.04-.08.08v.07s.03.06.05.07l.59.64v9.19l-1.14.69s-.05.04-.05.07v.09s.04.08.08.08h7l.62-2.26v.02h.01Z"/>
          <path class="cls-1" d="M12.4,10.87l-1.21-.87V1.03l1.05-.67s.04-.04.04-.07v-.08s-.04-.08-.08-.08h-1.95c-.21.81-.82,1.74-1.42,2.64l-2.18,3.1L2.6.13H.42c-.07,0-.12.06-.12.12,0,.04.02.07.05.1l1.04,1.14v8.44l-1.32.94s-.07.07-.07.12h0c0,.08.06.14.14.14h3.29c.07,0,.14-.06.14-.14,0-.05-.03-.09-.07-.12l-1.21-.87V2.19l4.14,5.58h0l3.29-4.9v7.07l-1.1.94s-.07.07-.07.12h0c0,.08.06.14.14.14h3.71c.07,0,.14-.06.14-.14,0-.05-.03-.09-.07-.12h-.07Z"/>
          <path class="cls-1" d="M67.48,0c-2.39-.02-4.36,1.9-4.38,4.29-.02,2.39,1.9,4.36,4.29,4.38s4.36-1.9,4.38-4.29S69.87.03,67.48,0ZM67.41,7.76c-1.56-.01-2.81-1.56-2.79-3.46.02-1.89,1.3-3.42,2.86-3.4s2.81,1.56,2.79,3.46c-.02,1.89-1.3,3.42-2.86,3.4Z"/>
          <path class="cls-1" d="M87.5.29v-.07s-.04-.08-.08-.08h-3.18s-.08.04-.08.08v.07s.02.06.04.07l1.05.56-2.41,7.95L80.31.05h-.87l-2.93,8.88-1.96-8.01,1.25-.56s.05-.04.05-.08v-.07s-.04-.08-.08-.08h-3.9s-.08.04-.08.08v.08s.02.06.04.07l1.08.63,2.64,10.21h.93l2.96-8.54,2.45,8.54h.95l3.4-10.2,1.21-.64s.04-.04.04-.07c0,0,.01,0,.01,0Z"/>
          <path class="cls-1" d="M58.07.13h-3.64s-.08.04-.08.08v.08s.02.06.04.07l1.31.78v7.7L49.53.12h-2.74s-.08.04-.08.08v.07s0,.05.03.07l1.47,1.07v8.51l-1.86.96s-.04.04-.04.07v.09s.04.08.08.08h4.27s.08-.04.08-.08v-.09s-.02-.06-.05-.07l-1.6-.9V2.1l6.44,9.1h1.05V2.9c0-1.07.59-2.04,1.53-2.55.03,0,.04-.04.04-.07v-.07s-.04-.08-.08-.08h0Z"/>
        </g>
        <g>
          <path class="cls-1" d="M103.74,5.15l.39,1.42s0,.06-.04.06h-.09c-.28-.35-.64-.71-1.04-.92s-.83-.33-1.24-.33c-.7,0-1.3.28-1.79.85s-.73,1.26-.73,2.08.23,1.51.69,2.07c.46.55,1.07.83,1.83.83.39,0,.78-.08,1.17-.25v-2.26l-.73-.51s-.03-.04-.03-.06h0s.03-.07.07-.07h2.3s.07.03.07.07h0s0,.05-.04.06h0c-.5.3-.73.67-.73,1.42v1.31c0,.11.08.22.23.32.02.02.04.04.04.07h0s-.03.07-.06.08c-.92.23-1.72.35-2.4.35-.99,0-1.82-.31-2.48-.94-.66-.63-.99-1.42-.99-2.37,0-1.02.36-1.85,1.08-2.5s1.64-.97,2.76-.97c.57,0,1.15.07,1.75.2h.01Z"/>
          <path class="cls-1" d="M110.74,5.15l.39,1.42s0,.06-.04.06h-.09c-.28-.35-.64-.71-1.04-.92s-.83-.33-1.24-.33c-.7,0-1.3.28-1.79.85s-.73,1.26-.73,2.08.23,1.51.69,2.07c.46.55,1.07.83,1.83.83.39,0,.78-.08,1.17-.25v-2.26l-.73-.51s-.03-.04-.03-.06h0s.03-.07.07-.07h2.3s.07.03.07.07h0s0,.05-.04.06h0c-.5.3-.73.67-.73,1.42v1.31c0,.11.08.22.23.32.02.02.04.04.04.07h0s-.03.07-.06.08c-.92.23-1.72.35-2.4.35-.99,0-1.82-.31-2.48-.94-.66-.63-.99-1.42-.99-2.37,0-1.02.36-1.85,1.08-2.5s1.64-.97,2.76-.97c.57,0,1.15.07,1.75.2h.01Z"/>
          <path class="cls-1" d="M117.91,11.53s0-.04-.03-.05c-.52-.23-.88-.49-1.15-.86l-1.62-2.16,1.59-2.78,1.01-.52s.03-.03.03-.04v-.04s-.02-.05-.05-.05h-2.08s-.05.02-.05.05v.04s0,.04.03.05c.35.16.47.28.47.46,0,.1-.03.21-.1.34l-1.2,2.19h-.97v-2.56l.78-.43s.04-.04.04-.06h0s-.03-.08-.07-.08h-2.42s-.07.03-.07.07h0s0,.06.04.07l.73.4v5.5l-.75.4s-.04.04-.04.06v.02s.03.07.07.07h2.46s.07-.03.07-.07c0-.03,0-.05-.04-.06l-.8-.42v-2.29h.45l1.81,2.43-.06.35s.02.06.05.06h1.82s.05-.02.05-.05v-.05h0Z"/>
        </g>
      </g>
    </g>
  </g>
</svg>